<svg class="svg-icon" style="width: 1em;height: 1em;vertical-align: middle;fill: currentColor;overflow: hidden;" viewBox="0 0 1024 1024" version="1.1" xmlns="http://www.w3.org/2000/svg"><path d="M0 512C0 229.226667 229.226667 0 512 0s512 229.226667 512 512-229.226667 512-512 512S0 794.773333 0 512z" fill="#FFFFFF" /><path d="M512.021333 238.933333c-74.154667 0-83.456 0.32-112.597333 1.642667-29.056 1.344-48.917333 5.930667-66.261333 12.693333a133.76 133.76 0 0 0-48.384 31.488 134.037333 134.037333 0 0 0-31.509334 48.362667c-6.784 17.365333-11.392 37.226667-12.693333 66.282667-1.301333 29.12-1.642667 38.442667-1.642667 112.597333 0 74.154667 0.32 83.434667 1.642667 112.576 1.344 29.056 5.952 48.917333 12.693333 66.261333a134.037333 134.037333 0 0 0 31.488 48.384 133.76 133.76 0 0 0 48.362667 31.509334c17.365333 6.762667 37.226667 11.370667 66.282667 12.693333 29.141333 1.322667 38.442667 1.642667 112.597333 1.642667 74.154667 0 83.434667-0.32 112.554667-1.642667 29.077333-1.322667 48.938667-5.930667 66.325333-12.693333a133.866667 133.866667 0 0 0 48.341333-31.509334 134.208 134.208 0 0 0 31.509334-48.362666c6.72-17.365333 11.328-37.226667 12.693333-66.282667 1.301333-29.12 1.642667-38.421333 1.642667-112.576s-0.341333-83.456-1.642667-112.597333c-1.365333-29.056-5.973333-48.917333-12.693333-66.261334a133.930667 133.930667 0 0 0-31.509334-48.384 133.504 133.504 0 0 0-48.362666-31.488c-17.408-6.762667-37.269333-11.349333-66.325334-12.693333-29.141333-1.322667-38.4-1.642667-112.597333-1.642667h0.085333z m-9.109333 49.216h9.109333c72.917333 0 81.557333 0.256 110.357334 1.557334 26.624 1.216 41.066667 5.674667 50.688 9.408a84.544 84.544 0 0 1 31.381333 20.416c9.557333 9.557333 15.466667 18.666667 20.437333 31.402666 3.733333 9.621333 8.192 24.064 9.408 50.688 1.301333 28.8 1.578667 37.44 1.578667 110.314667 0 72.874667-0.277333 81.536-1.578667 110.314667-1.216 26.624-5.674667 41.066667-9.408 50.688a84.330667 84.330667 0 0 1-20.437333 31.36 84.416 84.416 0 0 1-31.381333 20.437333c-9.621333 3.754667-24.064 8.192-50.688 9.408-28.8 1.301333-37.44 1.578667-110.357334 1.578667s-81.557333-0.277333-110.336-1.578667c-26.624-1.237333-41.066667-5.674667-50.709333-9.429333a84.608 84.608 0 0 1-31.402667-20.416 84.842667 84.842667 0 0 1-20.437333-31.381334c-3.733333-9.621333-8.192-24.064-9.408-50.688-1.301333-28.778667-1.557333-37.44-1.557333-110.357333s0.256-81.514667 1.557333-110.314667c1.216-26.624 5.674667-41.066667 9.408-50.688a84.48 84.48 0 0 1 20.437333-31.402666 84.672 84.672 0 0 1 31.402667-20.437334c9.621333-3.754667 24.085333-8.192 50.709333-9.429333 25.194667-1.130667 34.944-1.472 85.845334-1.536v0.085333h15.381333z m122.112 78.101334a32.768 32.768 0 1 1 65.514667 0 32.768 32.768 0 0 1-65.514667 0z m-113.002667 5.525333a140.224 140.224 0 1 0 0 280.448 140.224 140.224 0 0 0 0-280.448zM603.050667 512a91.050667 91.050667 0 1 0-182.101334 0.042667A91.050667 91.050667 0 0 0 603.050667 512z" fill="#000000" /></svg>